{"title":"Spectre 2015 HDCAM XVID-RAV3N","uid":12759247,"size":1608972047,"categoryP":"video","categoryS":"movies","magnet":"?xt=urn:btih:c4cd0ca3e670b3bb3c0c27bec7882b42e0e7f7f9&amp;dn=Spectre+2015+HDCAM+XVID-RAV3N&amp;tr=udp%3A%2F%2Ftracker.leechers-paradise.org%3A6969&amp;tr=udp%3A%2F%2Fzer0day.ch%3A1337&amp;tr=udp%3A%2F%2Fopen.demonii.com%3A1337&amp;tr=udp%3A%2F%2Ftracker.coppersurfer.tk%3A6969&amp;tr=udp%3A%2F%2Fexodus.desync.com%3A6969","seeders":6,"leechers":5,"uploader":"xxxlavalxxx","files":4,"time":1447507258,"description":"http://extraimago.com/image/e2z\r\n \nhttp://www.imdb.com/title/tt2379713/\r\n\r\n\r\nA cryptic message from Bond's past sends him on a trail to uncover a sinister organization. While M battles political forces to keep the secret service alive, Bond peels back the layers of deceit to reveal the terrible truth behind SPECTRE.\r\n\r\nDirector: Sam Mendes\r\nWriters: John Logan (screenplay), Neal Purvis (screenplay)\r\nStars: Daniel Craig, Christoph Waltz, Léa Seydoux \r\nGenres: Action | Adventure | Thriller\r\nCountry: UK | USA\r\nLanguage: English | Spanish | Italian | German | French\r\n\r\n\r\nInfomation\r\nSource: InComing/CPG [Huge thanks man)\r\nSample: Yes\r\nSubtitles: English .srt\r\n\r\n \r\n\r\nstable the video and fix the audio delay issue.\r\n\r\n \r\n\r\nFormat                      : AVI\r\nFormat/Info                 : Audio Video Interleave\r\nFile size                   : 1.49 GiB\r\nDuration                    : 2h 18mn\r\nOverall bit rate            : 1 538 Kbps\r\n\r\n \r\n\r\nVideo\r\nID                          : 0\r\nFormat                      : MPEG-4 Visual\r\nFormat profile              : Advanced\r\nFormat settings, BVOP       : 2\r\nFormat settings, QPel       : Yes\r\nFormat settings, GMC        : No warppoints\r\nFormat settings, Matrix     : Default (H.263)\r\nMuxing mode                 : Packed bitstream\r\nCodec ID                    : XVID\r\nCodec ID/Hint               : XviD\r\nDuration                    : 2h 18mn\r\nBit rate                    : 1 404 Kbps\r\nWidth                       : 720 pixels\r\nHeight                      : 368 pixels\r\nDisplay aspect ratio        : 1.957\r\nFrame rate                  : 23.976 fps\r\nColor space                 : YUV\r\nChroma subsampling          : 4:2:0\r\nBit depth                   : 8 bits\r\nScan type                   : Progressive\r\nCompression mode            : Lossy\r\nBits/(Pixel*Frame)          : 0.221\r\nStream size                 : 1.36 GiB (91%)\r\nWriting library             : XviD 73\r\n\r\n \r\n\r\nAudio\r\nID                          : 1\r\nFormat                      : MPEG Audio\r\nFormat version              : Version 1\r\nFormat profile              : Layer 3\r\nMode                        : Joint stereo\r\nMode extension              : MS Stereo\r\nCodec ID                    : 55\r\nCodec ID/Hint               : MP3\r\nDuration                    : 2h 18mn\r\nBit rate mode               : Constant\r\nBit rate                    : 128 Kbps\r\nChannel(s)                  : 2 channels\r\nSampling rate               : 48.0 KHz\r\nCompression mode            : Lossy\r\nStream size                 : 127 MiB (8%)\r\n\r\n  \nhttp://extraimago.com/image/4Qu \nhttp://extraimago.com/image/4Qv \nhttp://extraimago.com/image/4QA \nhttp://extraimago.com/image/4QW","torrent":{"xt":"urn:btih:c4cd0ca3e670b3bb3c0c27bec7882b42e0e7f7f9","amp;dn":"Spectre+2015+HDCAM+XVID-RAV3N","amp;tr":["udp%3A%2F%2Ftracker.leechers-paradise.org%3A6969","udp%3A%2F%2Fzer0day.ch%3A1337","udp%3A%2F%2Fopen.demonii.com%3A1337","udp%3A%2F%2Ftracker.coppersurfer.tk%3A6969","udp%3A%2F%2Fexodus.desync.com%3A6969"],"infoHash":"c4cd0ca3e670b3bb3c0c27bec7882b42e0e7f7f9","infoHashBuffer":{"type":"Buffer","data":[196,205,12,163,230,112,179,187,60,12,39,190,199,136,43,66,224,231,247,249]},"announce":[],"urlList":[]}}